<?xml version="1.0" encoding="UTF-8" standalone="no"?>
<!DOCTYPE svg PUBLIC "-//W3C//DTD SVG 1.1//EN" "http://www.w3.org/Graphics/SVG/1.1/DTD/svg11.dtd">
<svg width="100%" height="100%" viewBox="0 0 544 334" version="1.1" xmlns="http://www.w3.org/2000/svg" xmlns:xlink="http://www.w3.org/1999/xlink" xml:space="preserve" xmlns:serif="http://www.serif.com/" style="fill-rule:evenodd;clip-rule:evenodd;stroke-linejoin:round;stroke-miterlimit:2;">
    <g transform="matrix(1,0,0,1,-451,-731)">
        <g transform="matrix(1,0,0,1,-716.916,0)">
            <g transform="matrix(1,0,0,1,847.151,345.428)">
                <path d="M465,398L599.234,475.5L599.234,630.5L465,708L330.766,630.5L330.766,475.5L465,398Z" style="fill:white;"/>
            </g>
            <g transform="matrix(1,0,0,1,847.151,345.428)">
                <path d="M609.234,469.726L609.234,636.274L465,719.547L320.766,636.274L320.766,469.726L465,386.453C513.078,414.211 561.156,441.969 609.234,469.726ZM340.766,481.274L340.766,624.726L465,696.453L589.234,624.726L589.234,481.274L465,409.547C423.589,433.456 382.177,457.365 340.766,481.274Z" style="fill:rgb(0,35,84);"/>
            </g>
            <g transform="matrix(166.029,0,0,166.029,1237.02,957.176)">
                <path d="M0.889,-0.175L0.799,-0.175L0.581,-0.409L0.783,-0.527L0.885,-0.527L0.885,-0.701L0.476,-0.701L0.476,-0.527L0.597,-0.527L0.35,-0.387L0.35,-0.527L0.431,-0.527L0.431,-0.701L0.016,-0.701L0.016,-0.527L0.123,-0.527L0.123,-0.175L0.016,-0.175L0.016,0L0.431,0L0.431,-0.175L0.35,-0.175L0.35,-0.279L0.409,-0.314L0.537,-0.175L0.476,-0.175L0.476,0L0.889,0L0.889,-0.175Z" style="fill:rgb(0,35,84);fill-rule:nonzero;"/>
            </g>
            <g transform="matrix(0.757471,0,0,0.757471,777.019,242.489)">
                <g transform="matrix(72,0,0,72,930.069,816.755)">
                    <path d="M0.735,0L0.472,-0.452L0.713,-0.7L0.575,-0.7L0.194,-0.308L0.194,-0.7L0.077,-0.7L0.077,0L0.194,0L0.194,-0.172L0.39,-0.374L0.602,0L0.735,0Z" style="fill:rgb(255,245,138);fill-rule:nonzero;"/>
                </g>
                <g transform="matrix(72,0,0,72,987.309,816.755)">
                    <path d="M0.654,0L0.654,-0.091L0.194,-0.091L0.194,-0.315L0.602,-0.315L0.602,-0.401L0.194,-0.401L0.194,-0.609L0.654,-0.609L0.654,-0.7L0.077,-0.7L0.077,0L0.654,0Z" style="fill:rgb(255,245,138);fill-rule:nonzero;"/>
                </g>
                <g transform="matrix(72,0,0,72,1041.52,816.755)">
                    <path d="M0.417,0L0.417,-0.607L0.685,-0.607L0.685,-0.7L0.031,-0.7L0.031,-0.607L0.299,-0.607L0.299,0L0.417,0Z" style="fill:rgb(255,245,138);fill-rule:nonzero;"/>
                </g>
                <g transform="matrix(72,0,0,72,1090.05,816.755)">
                    <path d="M0.442,0.012C0.681,0.012 0.836,-0.118 0.836,-0.35C0.836,-0.582 0.681,-0.712 0.442,-0.712C0.204,-0.712 0.049,-0.582 0.049,-0.35C0.049,-0.118 0.204,0.012 0.442,0.012ZM0.442,-0.074C0.289,-0.074 0.171,-0.161 0.171,-0.35C0.171,-0.539 0.289,-0.626 0.442,-0.626C0.596,-0.626 0.714,-0.539 0.714,-0.35C0.714,-0.161 0.596,-0.074 0.442,-0.074Z" style="fill:rgb(255,245,138);fill-rule:nonzero;"/>
                </g>
                <g transform="matrix(72,0,0,72,930.069,888.755)">
                    <path d="M0.637,0L0.637,-0.093L0.194,-0.093L0.194,-0.7L0.077,-0.7L0.077,0L0.637,0Z" style="fill:rgb(255,245,138);fill-rule:nonzero;"/>
                </g>
                <g transform="matrix(72,0,0,72,982.845,888.755)">
                    <path d="M0.557,0L0.557,-0.091L0.354,-0.091L0.354,-0.609L0.557,-0.609L0.557,-0.7L0.035,-0.7L0.035,-0.609L0.237,-0.609L0.237,-0.091L0.035,-0.091L0.035,0L0.557,0Z" style="fill:rgb(255,245,138);fill-rule:nonzero;"/>
                </g>
                <g transform="matrix(72,0,0,72,1029.07,888.755)">
                    <path d="M0.606,-0.282L0.606,-0.373L0.194,-0.373L0.194,-0.609L0.642,-0.609L0.642,-0.7L0.077,-0.7L0.077,0L0.194,0L0.194,-0.282L0.606,-0.282Z" style="fill:rgb(255,245,138);fill-rule:nonzero;"/>
                </g>
                <g transform="matrix(72,0,0,72,1081.63,888.755)">
                    <path d="M0.654,0L0.654,-0.091L0.194,-0.091L0.194,-0.315L0.602,-0.315L0.602,-0.401L0.194,-0.401L0.194,-0.609L0.654,-0.609L0.654,-0.7L0.077,-0.7L0.077,0L0.654,0Z" style="fill:rgb(255,245,138);fill-rule:nonzero;"/>
                </g>
                <g transform="matrix(72,0,0,72,930.069,960.755)">
                    <path d="M0.427,0.012C0.68,0.012 0.775,-0.126 0.775,-0.251C0.775,-0.262 0.774,-0.273 0.772,-0.283L0.657,-0.297C0.66,-0.285 0.662,-0.269 0.662,-0.254C0.662,-0.137 0.548,-0.078 0.433,-0.078C0.3,-0.078 0.171,-0.148 0.171,-0.351C0.171,-0.526 0.279,-0.621 0.43,-0.621C0.556,-0.621 0.66,-0.564 0.66,-0.448C0.66,-0.434 0.659,-0.424 0.657,-0.41L0.773,-0.428C0.774,-0.434 0.775,-0.445 0.775,-0.457C0.775,-0.577 0.688,-0.712 0.421,-0.712C0.202,-0.712 0.049,-0.575 0.049,-0.351C0.049,-0.127 0.184,0.012 0.427,0.012Z" style="fill:rgb(255,245,138);fill-rule:nonzero;"/>
                </g>
                <g transform="matrix(72,0,0,72,993.933,960.755)">
                    <path d="M0.442,0.012C0.681,0.012 0.836,-0.118 0.836,-0.35C0.836,-0.582 0.681,-0.712 0.442,-0.712C0.204,-0.712 0.049,-0.582 0.049,-0.35C0.049,-0.118 0.204,0.012 0.442,0.012ZM0.442,-0.074C0.289,-0.074 0.171,-0.161 0.171,-0.35C0.171,-0.539 0.289,-0.626 0.442,-0.626C0.596,-0.626 0.714,-0.539 0.714,-0.35C0.714,-0.161 0.596,-0.074 0.442,-0.074Z" style="fill:rgb(255,245,138);fill-rule:nonzero;"/>
                </g>
                <g transform="matrix(72,0,0,72,1059.81,960.755)">
                    <path d="M0.752,0L0.448,-0.7L0.312,-0.7L0.008,0L0.132,0L0.19,-0.141L0.568,-0.141L0.628,0L0.752,0ZM0.537,-0.223L0.221,-0.223L0.379,-0.594L0.537,-0.223Z" style="fill:rgb(255,245,138);fill-rule:nonzero;"/>
                </g>
                <g transform="matrix(72,0,0,72,1116.69,960.755)">
                    <path d="M0.427,0.012C0.68,0.012 0.775,-0.126 0.775,-0.251C0.775,-0.262 0.774,-0.273 0.772,-0.283L0.657,-0.297C0.66,-0.285 0.662,-0.269 0.662,-0.254C0.662,-0.137 0.548,-0.078 0.433,-0.078C0.3,-0.078 0.171,-0.148 0.171,-0.351C0.171,-0.526 0.279,-0.621 0.43,-0.621C0.556,-0.621 0.66,-0.564 0.66,-0.448C0.66,-0.434 0.659,-0.424 0.657,-0.41L0.773,-0.428C0.774,-0.434 0.775,-0.445 0.775,-0.457C0.775,-0.577 0.688,-0.712 0.421,-0.712C0.202,-0.712 0.049,-0.575 0.049,-0.351C0.049,-0.127 0.184,0.012 0.427,0.012Z" style="fill:rgb(255,245,138);fill-rule:nonzero;"/>
                </g>
                <g transform="matrix(72,0,0,72,1179.62,960.755)">
                    <path d="M0.743,0L0.743,-0.7L0.625,-0.7L0.625,-0.413L0.194,-0.413L0.194,-0.7L0.077,-0.7L0.077,0L0.194,0L0.194,-0.327L0.625,-0.327L0.625,0L0.743,0Z" style="fill:rgb(255,245,138);fill-rule:nonzero;"/>
                </g>
            </g>
        </g>
    </g>
</svg>
